<svg width="33" height="35" viewBox="0 0 33 35" fill="none" xmlns="http://www.w3.org/2000/svg">
<path d="M4.89353 0H21.8132C23.1589 0 24.3823 0.549678 25.2699 1.43828C26.1576 2.32688 26.7067 3.55155 26.7067 4.89869V15.8239C26.7067 17.171 26.1576 18.3957 25.2699 19.2843C24.3823 20.1729 23.1589 20.7226 21.8132 20.7226H13.3519L5.9206 27.1165C5.57634 27.4127 5.05569 27.3728 4.75981 27.0254C4.61471 26.8545 4.54927 26.6437 4.5635 26.4358L4.95896 20.7197H4.89353C3.54781 20.7197 2.32442 20.1701 1.43676 19.2815C0.549099 18.3957 0 17.171 0 15.8239V4.89869C0 3.55155 0.549099 2.32688 1.43676 1.43828C2.32158 0.549678 3.54496 0 4.89353 0ZM29.1079 7.96891C30.0667 8.15404 30.9259 8.62682 31.5917 9.29327C32.4594 10.1619 33 11.361 33 12.6825V23.6077C33 24.9292 32.4623 26.1282 31.5917 26.9969C30.7239 27.8656 29.5262 28.4067 28.2061 28.4067H28.0325L28.4365 34.2282C28.4479 34.4104 28.3938 34.5984 28.2658 34.7465C28.0069 35.0512 27.5488 35.0854 27.2473 34.8262L19.7875 28.2187H9.9606L14.8001 23.2915H25.0537C27.2899 23.2915 29.1222 21.4602 29.1222 19.2188V8.29074C29.1193 8.18252 29.1165 8.07429 29.1079 7.96891ZM7.30615 12.4404C6.85094 12.4404 6.48108 12.0701 6.48108 11.6144C6.48108 11.1588 6.85094 10.7885 7.30615 10.7885H15.9409C16.3962 10.7885 16.766 11.1588 16.766 11.6144C16.766 12.0701 16.3962 12.4404 15.9409 12.4404H7.30615ZM7.30615 8.35055C6.85094 8.35055 6.48108 7.9803 6.48108 7.52461C6.48108 7.06892 6.85094 6.69867 7.30615 6.69867H19.5457C20.0009 6.69867 20.3707 7.06892 20.3707 7.52461C20.3707 7.9803 20.0009 8.35055 19.5457 8.35055H7.30615ZM21.8103 1.65188H4.89353C4.00302 1.65188 3.19217 2.01644 2.60324 2.60599C2.01431 3.19554 1.65014 4.00439 1.65014 4.89869V15.8239C1.65014 16.7153 2.01431 17.527 2.60324 18.1166C3.19217 18.7062 4.00302 19.0707 4.89353 19.0707H5.84378V19.0736L5.89784 19.0764C6.3502 19.1077 6.69446 19.5008 6.66316 19.9536L6.34167 24.5846L12.47 19.3099C12.6179 19.1618 12.8227 19.0707 13.0504 19.0707H21.8103C22.7008 19.0707 23.5117 18.7062 24.1006 18.1166C24.6895 17.527 25.0537 16.7153 25.0537 15.8239V4.89869C25.0537 4.00724 24.6895 3.19554 24.1006 2.60599C23.5145 2.01644 22.7037 1.65188 21.8103 1.65188Z" fill="black"/>
</svg>
