<svg width="16" height="20" viewBox="0 0 16 20" fill="none" xmlns="http://www.w3.org/2000/svg">
<path d="M1.14342 20C0.947112 19.9994 0.754264 19.9497 0.583472 19.8556C0.406953 19.7591 0.259969 19.6187 0.157564 19.4489C0.0551595 19.279 0.00101149 19.0858 0.000662537 18.8889V2.58889C-0.0147857 1.92257 0.240446 1.27718 0.711042 0.792582C1.18164 0.307982 1.82969 0.0232161 2.51474 0H13.4853C14.1703 0.0232161 14.8184 0.307982 15.289 0.792582C15.7596 1.27718 16.0148 1.92257 15.9993 2.58889V18.8889C15.9981 19.0828 15.9448 19.273 15.8445 19.4406C15.7443 19.6083 15.6007 19.7475 15.428 19.8444C15.2542 19.942 15.0572 19.9933 14.8566 19.9933C14.656 19.9933 14.4589 19.942 14.2852 19.8444L7.80573 16.2778L1.71481 19.8333C1.54288 19.9371 1.3457 19.9946 1.14342 20Z" fill="#0B0000"/>
</svg>
