<svg width="4" height="18" viewBox="0 0 4 18" fill="none" xmlns="http://www.w3.org/2000/svg">
<path d="M3.92908 8.96594C3.92852 10.0506 3.04879 10.9294 1.96415 10.9289C0.879499 10.9283 0.000667451 10.0486 0.00122096 8.96393C0.00177448 7.87929 0.881504 7.00045 1.96615 7.00101C3.0508 7.00156 3.92963 7.88129 3.92908 8.96594Z" fill="#A68C8C"/>
<path d="M3.92883 1.96594C3.92828 3.05059 3.04855 3.92942 1.9639 3.92886C0.879255 3.92831 0.000423311 3.04858 0.000976824 1.96393C0.00153034 0.879286 0.88126 0.000453828 1.96591 0.00100734C3.05056 0.00156085 3.92939 0.88129 3.92883 1.96594Z" fill="#A68C8C"/>
<path d="M3.92883 16.0363C3.92828 17.1209 3.04855 17.9997 1.9639 17.9992C0.879255 17.9986 0.000423311 17.1189 0.000976824 16.0342C0.00153034 14.9496 0.88126 14.0708 1.96591 14.0713C3.05056 14.0719 3.92939 14.9516 3.92883 16.0363Z" fill="#A68C8C"/>
</svg>
