<svg width="11" height="11" viewBox="0 0 11 11" fill="none" xmlns="http://www.w3.org/2000/svg">
<path d="M10.1125 1.63013C8.93558 0.453161 7.79599 0.425138 6.59101 1.63013L5.85306 2.36806C5.78767 2.43345 5.76901 2.52686 5.78769 2.61093C6.2454 4.21758 7.52511 5.4973 9.13176 5.955C9.15044 5.96434 9.17845 5.96434 9.20647 5.96434C9.27186 5.96434 9.33725 5.93632 9.38395 5.88962L10.1125 5.16102C10.7104 4.5632 11 3.9934 11 3.41425C11 2.80709 10.7104 2.22795 10.1125 1.63013Z" fill="black"/>
<path d="M8.04838 6.49678C7.8709 6.41271 7.70276 6.32864 7.54396 6.22589C7.41319 6.15117 7.28244 6.0671 7.16101 5.97369C7.05826 5.9083 6.9368 5.81489 6.81537 5.71214C6.79668 5.7028 6.75933 5.67477 6.71263 5.61873C6.51647 5.45059 6.29227 5.22641 6.08677 4.99288C6.06809 4.98354 6.04007 4.93684 6.0027 4.88079C5.93732 4.80606 5.84392 4.68463 5.75051 4.55386C5.67578 4.46045 5.59171 4.32967 5.51698 4.1989C5.42357 4.0401 5.33016 3.87196 5.25544 3.70383C5.17137 3.51701 5.10597 3.34887 5.04058 3.18073L1.51904 6.70228C1.28552 6.93581 1.07068 7.36549 1.02397 7.68309L0.753074 9.62601C0.687687 10.037 0.809107 10.42 1.06131 10.6815C1.27616 10.8964 1.57509 11.0085 1.90203 11.0085C1.97675 11.0085 2.04212 10.9991 2.11685 10.9898L4.05979 10.7189C4.37739 10.6722 4.80706 10.4574 5.04058 10.2238L8.56215 6.70228C8.39402 6.6369 8.22586 6.57151 8.04838 6.49678Z" fill="black"/>
</svg>
