<svg width="17" height="18" viewBox="0 0 17 18" fill="none" xmlns="http://www.w3.org/2000/svg">
<path d="M13.0249 12.1875C13.2499 12.9975 13.8799 13.6275 14.6899 13.8525M1.55737 16.5C1.55737 13.5975 4.44489 11.25 7.99989 11.25C8.77989 11.25 9.52987 11.3625 10.2274 11.5725M11.7499 5.25C11.7499 7.32107 10.071 9 7.99989 9C5.92883 9 4.24989 7.32107 4.24989 5.25C4.24989 3.17893 5.92883 1.5 7.99989 1.5C10.071 1.5 11.7499 3.17893 11.7499 5.25ZM13.4074 11.805L10.7524 14.46C10.6474 14.565 10.5499 14.76 10.5274 14.9025L10.3849 15.915C10.3324 16.2825 10.5874 16.5375 10.9549 16.485L11.9674 16.3425C12.1099 16.32 12.3124 16.2225 12.4099 16.1175L15.0649 13.4625C15.5224 13.005 15.7399 12.4725 15.0649 11.7975C14.3974 11.13 13.8649 11.3475 13.4074 11.805Z" stroke="#1C2A3A" stroke-width="1.5" stroke-linecap="round" stroke-linejoin="round"/>
</svg>
