<svg width="54" height="11" viewBox="0 0 54 11" fill="none" xmlns="http://www.w3.org/2000/svg">
<path d="M5.27586 0.64646C5.44424 0.128222 6.17741 0.128223 6.34579 0.64646L7.21366 3.31747C7.28896 3.54923 7.50494 3.70615 7.74863 3.70615H10.5571C11.102 3.70615 11.3286 4.40343 10.8877 4.72372L8.61563 6.3745C8.41848 6.51773 8.33598 6.77163 8.41129 7.00339L9.27915 9.6744C9.44754 10.1926 8.85439 10.6236 8.41355 10.3033L6.14145 8.65252C5.9443 8.50928 5.67734 8.50928 5.4802 8.65252L3.2081 10.3033C2.76726 10.6236 2.17411 10.1926 2.3425 9.6744L3.21036 7.00339C3.28567 6.77163 3.20317 6.51773 3.00602 6.3745L0.733925 4.72372C0.293086 4.40343 0.519648 3.70615 1.06456 3.70615H3.87302C4.11671 3.70615 4.33269 3.54923 4.40799 3.31747L5.27586 0.64646Z" fill="#FEB052"/>
<path d="M19.1137 0.64646C19.2821 0.128222 20.0152 0.128223 20.1836 0.64646L21.0515 3.31747C21.1268 3.54923 21.3428 3.70615 21.5865 3.70615H24.3949C24.9398 3.70615 25.1664 4.40343 24.7256 4.72372L22.4535 6.3745C22.2563 6.51773 22.1738 6.77163 22.2491 7.00339L23.117 9.6744C23.2854 10.1926 22.6922 10.6236 22.2514 10.3033L19.9793 8.65252C19.7821 8.50928 19.5152 8.50928 19.318 8.65252L17.0459 10.3033C16.6051 10.6236 16.0119 10.1926 16.1803 9.6744L17.0482 7.00339C17.1235 6.77163 17.041 6.51773 16.8439 6.3745L14.5718 4.72372C14.1309 4.40343 14.3575 3.70615 14.9024 3.70615H17.7109C17.9545 3.70615 18.1705 3.54923 18.2458 3.31747L19.1137 0.64646Z" fill="#FEB052"/>
<path d="M33.8164 0.64646C33.9848 0.128222 34.7179 0.128223 34.8863 0.64646L35.7542 3.31747C35.8295 3.54923 36.0455 3.70615 36.2892 3.70615H39.0976C39.6425 3.70615 39.8691 4.40343 39.4282 4.72372L37.1562 6.3745C36.959 6.51773 36.8765 6.77163 36.9518 7.00339L37.8197 9.6744C37.9881 10.1926 37.3949 10.6236 36.9541 10.3033L34.682 8.65252C34.4848 8.50928 34.2179 8.50928 34.0207 8.65252L31.7486 10.3033C31.3078 10.6236 30.7146 10.1926 30.883 9.6744L31.7509 7.00339C31.8262 6.77163 31.7437 6.51773 31.5466 6.3745L29.2745 4.72372C28.8336 4.40343 29.0602 3.70615 29.6051 3.70615H32.4135C32.6572 3.70615 32.8732 3.54923 32.9485 3.31747L33.8164 0.64646Z" fill="#FEB052"/>
<path d="M47.6542 0.64646C47.8226 0.128222 48.5558 0.128223 48.7242 0.64646L49.592 3.31747C49.6673 3.54923 49.8833 3.70615 50.127 3.70615H52.9355C53.4804 3.70615 53.7069 4.40343 53.2661 4.72372L50.994 6.3745C50.7968 6.51773 50.7143 6.77163 50.7896 7.00339L51.6575 9.6744C51.8259 10.1926 51.2327 10.6236 50.7919 10.3033L48.5198 8.65252C48.3227 8.50928 48.0557 8.50928 47.8586 8.65252L45.5865 10.3033C45.1456 10.6236 44.5525 10.1926 44.7209 9.6744L45.5887 7.00339C45.664 6.77163 45.5815 6.51773 45.3844 6.3745L43.1123 4.72372C42.6714 4.40343 42.898 3.70615 43.4429 3.70615H46.2514C46.4951 3.70615 46.711 3.54923 46.7863 3.31747L47.6542 0.64646Z" fill="#FEB052"/>
</svg>
