<svg width="21" height="24" viewBox="0 0 21 24" fill="none" xmlns="http://www.w3.org/2000/svg">
<path d="M20.499 20.8714L19.7276 13.9286C19.5133 11.8714 17.7562 10.2857 15.6562 10.2857H13.3848C13.299 10.2857 13.1705 10.3286 13.1276 10.4143L10.2562 14.3143L7.3419 10.4143C7.29904 10.3286 7.17047 10.2857 7.08476 10.2857H4.81333C2.71333 10.2857 0.999045 11.8286 0.741902 13.9286L0.0133315 20.8714C-0.11524 22.1143 0.699045 23.2714 1.89904 23.5286L1.29905 16.6714C1.25619 16.0714 1.72762 15.6428 2.2419 15.6428H18.1848C18.7419 15.6428 19.2133 16.1143 19.1276 16.7143L18.5705 23.5714C19.8133 23.2286 20.6276 22.1143 20.499 20.8714Z" fill="black"/>
<path d="M10.2562 9.72857C12.9562 9.72857 15.099 7.54285 15.099 4.88571C15.099 2.18571 12.9562 0 10.2562 0C7.55619 0 5.41333 2.18571 5.41333 4.84285C5.41333 7.54285 7.55619 9.72857 10.2562 9.72857Z" fill="black"/>
<path d="M17.5714 17.4362C17.5714 17.2895 17.4588 17.1429 17.271 17.1429H3.30044C3.15022 17.1429 3 17.2895 3 17.4362L3.56333 24H16.9705L17.5714 17.4362Z" fill="black"/>
</svg>
