<?xml version="1.0" encoding="UTF-8"?>
<!DOCTYPE svg PUBLIC "-//W3C//DTD SVG 1.1//EN" "http://www.w3.org/Graphics/SVG/1.1/DTD/svg11.dtd">
<!-- Creator: CorelDRAW X7 -->
<svg xmlns="http://www.w3.org/2000/svg" xml:space="preserve" width="12.962mm" height="11.7226mm" version="1.1" style="shape-rendering:geometricPrecision; text-rendering:geometricPrecision; image-rendering:optimizeQuality; fill-rule:evenodd; clip-rule:evenodd"
viewBox="0 0 511 462"
 xmlns:xlink="http://www.w3.org/1999/xlink">
 <defs>
  <style type="text/css">
   <![CDATA[
    .fil0 {fill:#F89422}
   ]]>
  </style>
 </defs>
 <g id="Layer_x0020_1">
  <metadata id="CorelCorpID_0Corel-Layer"/>
  <path class="fil0" d="M59 162c-59,11 -76,77 -41,117 14,16 41,29 71,20 24,-6 42,-27 69,-28 45,-3 66,41 113,29 15,-4 21,-8 33,-15 77,-43 87,27 148,16 52,-9 80,-73 41,-117 -15,-16 -41,-29 -71,-21 -23,6 -42,27 -69,29 -46,3 -64,-41 -113,-30 -13,3 -22,10 -33,16 -75,43 -89,-27 -148,-16zm93 -160c-18,5 -29,7 -43,23 -10,13 -17,29 -17,50 2,35 31,65 66,67 44,3 60,-34 101,-32 38,3 56,39 101,31 33,-6 59,-34 58,-73 0,-35 -31,-66 -65,-67 -45,-2 -61,34 -101,31 -35,-2 -65,-40 -100,-30zm-59 396c3,35 31,62 68,64 41,2 60,-36 101,-31 36,4 58,39 100,29 32,-7 59,-34 56,-75 -2,-35 -32,-63 -68,-64 -42,-1 -59,35 -101,31 -37,-4 -58,-40 -100,-30 -37,9 -60,40 -56,76z"/>
 </g>
</svg>
