<?xml version="1.0" encoding="UTF-8"?>
<!DOCTYPE svg PUBLIC "-//W3C//DTD SVG 1.1//EN" "http://www.w3.org/Graphics/SVG/1.1/DTD/svg11.dtd">
<!-- Creator: CorelDRAW X7 -->
<svg xmlns="http://www.w3.org/2000/svg" xml:space="preserve" width="26.199mm" height="8.3234mm" version="1.1" style="shape-rendering:geometricPrecision; text-rendering:geometricPrecision; image-rendering:optimizeQuality; fill-rule:evenodd; clip-rule:evenodd"
viewBox="0 0 530 168"
 xmlns:xlink="http://www.w3.org/1999/xlink">
 <defs>
  <style type="text/css">
   <![CDATA[
    .fil0 {fill:black}
   ]]>
  </style>
 </defs>
 <g id="Layer_x0020_1">
  <metadata id="CorelCorpID_0Corel-Layer"/>
  <path class="fil0" d="M33 53l2 0c1,0 2,0 2,0 1,0 1,0 2,1 0,0 1,0 2,1 0,0 1,1 1,1 1,0 1,1 1,1 1,0 1,0 1,0 1,1 1,1 2,2 0,0 0,1 1,1 0,0 0,0 0,0 0,0 0,0 0,1l0 0c0,1 0,2 0,2 0,1 -1,2 -1,3 0,1 0,1 0,2 -1,1 -1,1 -1,2 0,0 -1,1 -1,1l0 1c0,0 -1,1 -1,1l-2 2c0,0 0,0 0,0 0,0 -1,0 -1,0l-1 1c-1,0 -1,0 -2,1 0,0 0,0 -1,0l-1 0c0,0 -1,0 -1,0 0,0 0,0 0,-1 -1,0 -1,0 -2,0l-2 -1c0,0 -1,-1 -1,-1 0,0 0,0 -1,0l0 -1c-1,0 -1,-1 -1,-1 -1,-1 -1,-1 -1,-2 0,0 -1,0 -1,0 0,-1 0,-1 0,-2 -1,0 -1,0 -1,0 0,-1 0,-1 0,-2 0,0 0,0 -1,-1 0,0 0,0 0,0 0,-1 0,-1 0,-2l0 -2c0,0 0,0 0,-1 0,0 0,0 0,0 1,-1 1,-2 1,-2 0,0 0,0 0,-1 0,0 1,0 1,0l1 -2c0,0 1,0 1,-1 0,0 1,0 1,0 0,0 0,0 1,0 1,-1 1,-1 2,-1 0,0 1,0 2,0zm440 -5l2 0c0,0 0,0 0,0l0 0c1,0 1,0 1,1 1,0 1,0 1,0 1,0 1,1 1,1 0,0 0,0 0,0 0,1 0,1 0,1 1,0 1,0 1,0 0,0 0,1 0,1 0,0 0,0 0,0 0,0 0,0 0,1l0 0c0,0 0,0 0,1 0,0 0,0 0,0 0,0 -1,1 -1,1 0,0 0,0 0,0 0,1 -1,1 -1,1 0,1 0,1 -1,1l0 0 -1 1c0,0 0,0 0,0l-1 1c0,0 0,0 -1,0 -1,1 -2,1 -3,1 0,0 -1,0 -1,0 -1,-1 -1,-3 -1,-5 0,0 0,0 0,-1 0,0 0,0 0,0l0 -1c0,0 0,-1 0,-1 1,-1 1,-1 1,-1 0,-1 0,-1 0,-2l1 0c0,0 0,0 0,0l0 -1c0,0 0,0 1,0 0,0 0,0 0,0 0,0 0,0 0,0 0,0 1,0 1,0 0,0 0,0 1,0zm0 -14l-1 0c-1,0 -2,0 -3,0 -1,1 -3,1 -4,2 -1,0 -2,1 -3,2 0,0 0,0 -1,0 0,0 -1,0 -2,0l-6 0c-1,0 -1,0 -2,0l-6 0c-1,0 -1,0 -2,0l-5 0c-2,-1 -3,-1 -4,-1l-1 0c0,0 0,-1 0,-2 0,-2 -1,-3 -2,-5 -1,-1 -3,-2 -5,-3 -1,0 -2,0 -3,0 0,0 -1,0 -2,0 -1,0 -2,1 -4,2 -1,0 -2,1 -3,3 -1,0 -2,2 -2,3 0,1 0,1 0,2 0,1 0,1 0,2 0,1 0,2 1,4 1,1 1,2 2,3 0,0 1,0 1,0l0 0c-1,1 -1,1 -1,2 -1,0 -1,1 -1,1l-2 3c0,0 0,1 -1,1 0,1 0,1 0,2 -1,0 -1,1 -2,1l0 1 0 1c0,0 0,0 0,0 0,0 0,1 -1,1 0,0 0,1 -1,1 0,1 0,1 0,1 0,1 -1,1 -1,2l-1 1c0,0 0,1 -1,1 0,1 -1,2 -1,3 -1,1 -1,2 -2,2 0,0 0,0 0,0 0,0 0,1 0,1 -1,0 -1,0 -1,0 0,1 0,1 0,1 0,1 0,1 -1,1 0,0 0,0 0,0 0,1 -1,1 -1,1 0,1 0,1 0,1 -1,0 -1,1 -1,1 0,0 0,0 0,0 0,0 0,0 0,0 0,0 0,-1 -1,-2l0 0c0,-1 0,-1 0,-1 0,-1 0,-2 -1,-3 0,-1 0,-3 0,-3 -1,-2 -1,-3 -1,-3 0,-1 0,-1 0,-1 0,0 0,0 -1,-1 0,0 0,-1 0,-1 0,0 0,-1 0,-1 -1,-1 -1,-1 -1,-2 0,-1 0,-1 0,-1 0,0 0,-1 0,-1 0,-1 -1,-1 -1,-1 0,-2 -1,-3 -1,-3 0,0 0,-1 0,-1 0,0 0,0 0,-1 0,0 0,-1 -1,-1 0,0 0,0 0,-1 0,0 0,0 0,0 0,-1 0,-1 0,-2 -1,-1 -1,-2 -1,-3 -1,-1 -1,-1 -1,-2 0,0 0,0 0,-1 -1,0 -1,0 -1,-1 0,0 0,0 0,0 0,-1 0,-1 -1,-1 0,0 0,0 0,-1 -1,-3 -3,-4 -6,-4l-1 0c-2,0 -4,1 -5,2 -1,2 -1,3 -1,4 0,1 0,2 1,4l0 0c0,0 0,0 0,0 0,0 0,0 0,1 0,0 0,0 0,1 1,0 1,1 1,1 0,1 0,1 1,2 -2,1 -3,2 -4,3l0 1c-1,0 -1,1 -1,1 -1,1 -1,1 -1,2 -1,1 -2,2 -2,3 -1,1 -1,1 -1,2l-1 1c0,0 0,0 0,0 0,1 -1,2 -1,2l-1 1c0,1 0,2 0,2 -1,0 -1,1 -1,1 0,0 -1,1 -1,1l-1 1c0,1 0,1 -1,1 0,1 0,1 -1,3 0,0 0,0 -1,0 0,1 0,1 -1,1l-1 2c-1,0 -1,0 -1,1 0,0 -1,0 -1,0 0,0 0,0 0,1 0,0 -1,0 -1,0l-1 1 0 0c0,0 -1,0 -1,0l-1 0c0,0 -1,0 -1,0 -1,-1 -2,-1 -2,-1 -1,0 -1,0 -1,0 -1,-1 -1,-1 -2,-1 0,0 -1,-1 -1,-1 0,0 0,0 -1,-1 0,0 0,0 0,0 -1,-1 -1,-1 -1,-1 0,-1 -1,-1 -1,-2l0 0c-1,-1 -1,-2 -2,-3 0,-1 0,-1 0,-2 0,0 -1,-1 -1,-1 0,-1 0,-2 0,-2l0 -1c-1,-1 -1,-2 -1,-3 0,0 0,-1 0,-1l0 -2c0,0 0,-1 0,-1l0 -12c0,-2 -1,-4 -2,-5 -2,-1 -3,-2 -5,-2 -2,0 -3,1 -5,2 -1,1 -2,2 -2,3 0,0 0,0 0,0 -2,0 -3,0 -5,0 -1,0 -3,0 -4,0l-2 0 0 -2c0,0 0,-1 0,-2l0 -1c0,-2 0,-3 0,-4l0 -3c0,-1 0,-2 -1,-3l0 -1c0,-1 0,-1 0,-2l0 -1c0,-1 0,-2 0,-2l0 -1c0,-1 0,-1 0,-2 0,0 0,0 0,-1l0 -6c0,0 0,-1 0,-1l0 -1c0,-4 -1,-6 -3,-7 -1,0 -3,-1 -4,-1 -1,0 -2,1 -3,1 -3,1 -4,3 -4,7l0 1c0,0 0,0 0,1l0 7c0,0 0,0 0,1 0,0 0,0 0,0 0,1 0,2 0,2l0 1c1,1 1,1 1,2l0 1c0,0 0,1 0,2l0 1c0,0 0,1 0,2l0 1c0,1 0,2 0,2l0 5c0,1 0,2 0,3l0 1c0,0 -1,0 -1,0l-2 0c-1,0 -3,1 -4,1 -2,0 -3,0 -4,0 -2,1 -3,1 -4,1 -1,0 -1,0 -2,0 -1,1 -2,1 -2,1 -1,0 -1,0 -1,0 0,0 0,0 0,0l0 -1c0,-1 0,-2 0,-3l0 -1c0,0 0,0 0,-1 0,0 0,0 -1,-1 0,0 0,-1 0,-1l0 0c0,-1 0,-2 0,-2 0,-1 0,-1 0,-2l0 -1c0,-1 0,-2 0,-2 0,-1 0,-2 -1,-2l0 -2c0,-1 0,-2 0,-3l0 -3c0,-1 0,-2 0,-3l0 -3 0 -2 0 -5c0,-2 -1,-4 -2,-5 -1,-1 -3,-2 -5,-2 -2,0 -3,1 -5,2 -1,1 -2,3 -2,5l0 6c0,0 0,1 0,2l0 1c0,1 0,1 0,1l0 1c0,0 0,0 1,1l0 3c0,0 0,1 0,2l0 3c0,1 0,2 0,3 0,1 0,2 0,2l0 2c0,1 0,1 0,3 1,0 1,0 1,1l0 0c0,1 0,1 0,2 0,0 0,0 0,1 0,0 0,0 0,0 0,2 0,3 0,4 0,1 0,2 0,3l0 1c1,0 1,0 1,1 -1,0 -1,0 -1,0l-2 1c-1,1 -2,1 -3,2 -1,1 -2,1 -3,2 -2,1 -3,2 -3,3l-1 1c-1,0 -1,1 -1,1 -1,-1 -2,-2 -2,-2 -2,-1 -3,-2 -4,-2 -1,0 -2,1 -4,1 -1,0 -1,1 -2,1 0,0 -1,0 -2,1 0,0 0,0 0,0 -1,0 -1,0 -1,1 -2,0 -3,1 -4,1 -1,1 -2,1 -4,2 -1,1 -2,1 -3,2 -1,1 -2,1 -4,2 0,1 -1,1 -2,2 0,0 -1,0 -1,0l-4 3c0,0 0,0 -1,1 -1,0 -1,0 -2,1 -1,0 -1,0 -1,1 -1,0 -2,1 -3,1 -1,1 -3,2 -4,3 0,0 0,0 0,0 -1,1 -1,1 -2,1l0 -1c1,-1 1,-3 1,-3l0 -13c0,0 0,-1 0,-1l0 -8c0,0 0,-1 0,-1 0,-1 0,-1 -1,-2 0,0 0,-2 0,-3 0,-1 0,-1 0,-2 0,-2 -1,-4 -3,-5 -1,-1 -3,-1 -4,-1 0,0 -1,0 -1,0 -2,0 -4,1 -5,3 0,-1 -1,-1 -2,-2 -1,0 -3,-1 -4,-1 -1,0 -3,-1 -4,-1 -1,0 -2,0 -4,0l-1 0c-1,0 -2,0 -4,1 -1,0 -2,0 -4,1 -1,0 -2,1 -3,2 -1,0 -2,1 -4,2 0,1 -1,2 -2,3 -1,0 -1,0 -2,0 -1,0 -3,1 -4,3l0 1c0,0 -1,1 -1,1 0,1 -1,1 -1,2 -1,1 -1,2 -2,3 0,1 -1,1 -1,2l-1 1c0,0 0,0 0,0 0,1 0,2 -1,2l0 1c-1,1 -1,2 -1,2 0,0 -1,1 -1,1 0,0 0,1 -1,1l0 1c-1,1 -1,1 -1,1 -1,1 -1,1 -2,3 0,0 0,0 0,0 -1,1 -1,1 -1,1l-2 2c0,0 -1,0 -1,1 0,0 0,0 0,0 -1,0 -1,0 -1,1 0,0 -1,0 -1,0l-1 1 0 0c0,0 -1,0 -1,0l-1 0c0,0 -1,0 -1,0 -1,-1 -1,-1 -2,-1 0,0 -1,0 -1,0 -1,-1 -1,-1 -2,-1 0,0 0,-1 -1,-1 0,0 0,0 0,-1 -1,0 -1,0 -1,0 0,-1 -1,-1 -1,-1 0,-1 0,-1 -1,-2l0 0c-1,-1 -1,-2 -1,-3 -1,-1 -1,-1 -1,-2 0,0 0,-1 -1,-1 0,-1 0,-2 0,-2l0 -1c0,-1 -1,-2 -1,-3 0,0 0,-1 0,-1l0 -2c0,0 0,-1 0,-1l0 -12c0,-2 -1,-4 -2,-5 -1,-1 -3,-2 -5,-2 -2,0 -3,1 -5,2 -1,1 -2,3 -2,5l0 12c0,1 0,1 0,2 0,0 0,0 0,0 -1,0 -1,0 -2,1 0,0 0,0 0,0 -1,0 -1,0 -1,1 -2,0 -3,1 -4,1 -2,1 -3,1 -4,2 -1,1 -2,1 -4,2 0,1 -1,1 -3,2 -1,1 -2,1 -2,2 -1,0 -1,0 -2,0l-3 3c0,0 -1,0 -2,1 0,0 -1,0 -2,1 0,0 0,0 -1,1 0,0 -1,1 -2,1 -2,1 -3,2 -4,3 0,0 -1,0 -1,0 0,1 0,1 -1,1l0 -1c0,-1 0,-3 0,-3l0 -13c0,0 0,-1 0,-1l0 -8c0,0 0,-1 0,-1 0,-1 0,-1 0,-2 0,0 0,-2 0,-3 0,-1 0,-1 -1,-2 0,-2 -1,-4 -3,-5 -1,-1 -2,-1 -3,-1 -1,0 -1,0 -2,0 -2,0 -3,1 -4,3 -1,-1 -2,-1 -3,-2 -1,0 -2,-1 -4,-1 -1,0 -2,-1 -4,-1 -1,0 -2,0 -3,0l-1 0c-1,0 -2,0 -4,1 -1,0 -2,0 -4,1 -1,0 -2,1 -4,2 -1,0 -2,1 -3,2 -1,1 -2,2 -3,3 -1,1 -1,2 -2,4 -1,1 -1,2 -2,4 0,0 0,1 0,2 0,1 0,1 -1,2l0 4c0,1 1,2 1,4 0,0 0,0 0,0 0,1 0,1 0,1 0,1 1,2 1,4 1,1 2,2 2,4 1,0 2,1 2,2 0,0 1,1 1,1 1,1 1,2 2,2 0,1 1,1 1,2 1,0 1,1 2,1 1,1 2,1 2,1 1,1 2,2 4,3 1,0 2,0 3,1 0,0 1,0 1,0 1,0 3,0 4,0 2,0 3,0 4,0 0,0 0,0 1,0l1 0c1,0 1,-1 2,-1 1,0 2,-1 3,-1l0 0c0,1 0,2 0,3l-3 2c-1,1 -2,2 -3,2 0,1 0,1 -1,1 0,1 -1,2 -2,2l-2 3c-1,0 -2,1 -3,2 -1,1 -2,2 -3,3l-1 1c0,1 -1,2 -2,2 0,1 -1,1 -1,2 -1,0 -1,1 -1,1 -1,1 -2,2 -3,3l-3 3c0,1 -1,2 -3,3 0,1 -1,1 -1,2 -1,1 -1,1 -2,2 -1,1 -2,2 -3,3 -1,1 -1,2 -2,3l-1 1c-1,1 -1,2 -2,3 0,0 0,0 0,0l-1 2c0,1 -1,1 -1,2 -1,2 -1,3 -1,4 0,0 0,0 0,0 -1,2 -1,3 -1,4 0,2 0,3 0,5 0,1 1,2 1,3 0,0 0,1 0,1l1 1c0,1 1,2 1,3 1,1 2,2 3,3l2 1c0,1 1,1 1,1 2,1 3,2 4,2 1,1 3,1 4,1 1,0 1,0 2,0l2 0c2,0 3,0 4,0 1,0 3,-1 4,-1 0,0 0,0 0,0 2,-1 3,-1 4,-2 0,0 1,-1 1,-1 1,0 2,-1 2,-1 2,-1 3,-2 4,-3 1,-2 2,-3 2,-4 1,0 1,-1 2,-2 0,0 0,-1 1,-1 0,-1 1,-2 2,-3 0,-2 1,-3 1,-4 1,-2 2,-3 2,-4 0,-1 0,-1 1,-2 0,-1 0,-2 1,-2 0,-2 1,-4 1,-5 0,0 0,-1 0,-1 1,-1 1,-2 1,-3 1,-2 1,-3 1,-4 0,0 0,-1 1,-3l0 -1 0 -2c0,-1 0,-1 1,-2 0,-1 0,-2 0,-3 0,0 0,-1 0,-1 1,-2 1,-3 1,-4l0 -1c0,-1 0,-1 0,-1 0,-1 0,-2 0,-2 1,-2 1,-4 1,-5 0,0 0,0 0,-1l0 -1c0,0 0,0 0,0 0,0 0,0 0,0 1,-1 2,-2 3,-2 0,0 1,-1 1,-1 1,-1 2,-2 3,-2 2,-2 4,-3 4,-3 1,-1 2,-2 3,-2l2 -1c1,-1 1,-1 2,-2 0,0 1,0 1,-1 1,0 2,-1 2,-1 1,0 1,0 1,0 0,0 0,0 0,0 1,-1 1,-1 1,-1 0,0 0,0 1,0 0,0 0,-1 0,-1 1,0 1,0 1,0 0,0 1,-1 3,-2 1,-1 2,-1 3,-2l0 0 1 -1c1,0 2,-1 2,-1 1,0 2,-1 4,-1 0,-1 2,-1 3,-2 0,0 0,0 1,0 0,0 0,0 0,-1 0,1 1,2 1,3 1,1 1,2 2,3 0,1 1,2 1,3l1 1 0 1c1,1 2,2 3,3 0,0 0,1 1,1 0,0 1,1 2,2 1,1 2,1 3,2l4 1c0,0 1,1 2,1 0,0 0,0 1,0 1,0 2,0 3,1 1,0 3,0 4,-1 1,0 2,0 3,0l1 -1c1,0 2,0 3,-1 1,0 2,-1 3,-2 1,0 1,-1 2,-2l3 -2c0,-1 1,-1 1,-2 0,0 1,-1 1,-1 0,-1 1,-2 2,-3 0,0 0,0 0,0 1,-1 1,-1 2,-2 0,-1 1,-2 1,-3 1,1 1,3 2,4 0,0 1,1 1,2 1,0 1,1 2,1 0,1 1,2 1,2 1,1 1,1 2,2 0,0 1,1 2,1 0,1 1,1 1,1 2,1 3,2 4,3 1,0 2,0 3,1 1,0 1,0 1,0 2,0 3,0 5,0 1,0 2,0 3,0 0,0 1,0 1,0l1 0c1,0 2,-1 3,-1 1,0 1,-1 2,-1l0 0c0,1 0,2 0,3l-3 2c-1,1 -2,2 -2,2 -1,1 -1,1 -1,1 -1,1 -2,2 -2,2l-3 3c-1,0 -2,1 -2,2 -2,1 -3,2 -3,3l-1 1c-1,1 -2,2 -2,2 -1,1 -1,1 -2,2 0,0 -1,1 -1,1 -1,1 -2,2 -3,3l-3 3c0,1 -1,2 -2,3 -1,1 -1,1 -2,2 0,1 -1,1 -2,2 -1,1 -2,2 -3,3 0,1 -1,2 -2,3l0 1c-1,1 -2,2 -2,3 -1,0 -1,0 -1,0l-1 2c0,1 0,1 -1,2 0,2 -1,3 -1,4 0,0 0,0 0,0 0,2 -1,3 -1,4 0,2 0,3 1,5 0,1 0,2 0,3 1,0 1,1 1,1l0 1c1,1 1,2 2,3 1,1 1,2 2,3l2 1c0,1 1,1 2,1 1,1 2,2 3,2 2,1 3,1 4,1 1,0 2,0 2,0l3 0c1,0 2,0 3,0 2,0 3,-1 4,-1 0,0 0,0 1,0 1,-1 2,-1 3,-2 1,0 1,-1 2,-1 1,0 1,-1 2,-1 1,-1 2,-2 3,-3 1,-2 2,-3 3,-4 0,0 1,-1 1,-2 0,0 1,-1 1,-1 1,-1 1,-2 2,-3 1,-2 1,-3 2,-4 1,-2 1,-3 1,-4 1,-1 1,-1 1,-2 0,-1 1,-2 1,-2 1,-2 1,-4 1,-5 0,0 0,-1 1,-1 0,-1 0,-2 0,-3 1,-2 1,-3 1,-4 0,0 1,-1 1,-3l0 -1 0 -2c1,-1 1,-1 1,-2 0,-1 0,-2 1,-3 0,0 0,-1 0,-1 0,-2 0,-3 0,-4l0 -1c0,-1 0,-1 0,-1 1,-1 1,-2 1,-2 0,-2 0,-4 0,-5 0,0 0,0 0,-1l0 -1c0,0 0,0 0,0 0,0 0,0 0,0 2,-1 2,-2 3,-2 1,0 1,-1 1,-1 1,-1 2,-2 4,-2 2,-2 3,-3 3,-3 1,-1 3,-2 4,-2l1 -1c1,-1 2,-1 2,-2 1,0 1,0 2,-1 1,0 2,-1 2,-1 0,0 0,0 0,0 0,0 1,0 1,0 0,-1 0,-1 1,-1 0,0 0,0 0,0 0,0 1,-1 1,-1 0,0 0,0 0,0 1,0 2,-1 3,-2 1,-1 2,-1 3,-2l1 0 1 -1c1,0 1,-1 2,-1 1,0 2,-1 3,-1 1,-1 2,-1 3,-2 0,0 1,0 1,0l-1 2c0,1 -1,2 -1,2 0,1 0,1 0,2 0,1 -1,3 -1,4l0 0c0,1 0,2 0,2l0 2c0,0 0,1 1,2 0,1 0,1 0,2 1,1 1,2 2,3 0,1 0,1 0,1 1,1 2,2 2,3 2,1 3,2 4,2 1,1 2,1 3,1 1,1 1,1 1,1 2,0 3,0 5,1 1,-1 3,-1 4,-1 2,-1 4,-1 5,-2 1,-1 3,-2 4,-3 1,-1 2,-2 3,-3 1,-2 2,-3 2,-5 1,-1 1,-3 2,-4 0,-2 1,-3 1,-5 0,-2 0,-3 0,-4 1,-1 1,-2 1,-2 0,-1 0,-2 -1,-3l0 -11c1,0 2,-1 3,-1 1,0 3,0 4,-1 1,0 2,0 4,0 1,0 2,-1 4,-1 1,0 2,0 3,0 1,0 2,0 2,0l0 1c1,1 1,2 1,3l0 9c0,1 0,2 0,2l0 13c0,1 0,1 0,2 0,3 1,5 3,6 2,1 3,1 4,1 1,0 2,0 3,-1 2,-1 4,-3 4,-6 0,-1 0,-2 -1,-2l0 -13c0,-1 0,-1 0,-2l0 -10c0,0 0,-1 0,-2l0 -2 1 0c1,0 2,0 3,0l1 0c2,0 3,1 5,1 0,0 0,0 1,0l0 0c0,1 0,2 0,3 0,0 0,1 1,2l0 1c0,0 0,0 0,1 0,0 0,1 0,3 1,1 1,2 1,4 1,1 1,2 2,4 0,1 1,2 1,3 1,1 1,2 2,3l1 1 0 1c1,1 2,2 2,3 1,0 1,1 2,1 0,0 1,1 2,2 1,1 2,1 3,2l4 1c0,0 1,1 2,1 0,0 0,0 1,0 1,0 2,0 3,1 1,0 2,0 4,-1 1,0 2,0 3,0l1 -1c1,0 2,0 3,-1 0,0 1,-1 2,-2 1,0 2,-1 3,-2l2 -2c1,-1 1,-1 2,-2 0,0 0,-1 0,-1 1,-1 2,-2 3,-3 0,0 0,0 0,0 0,-1 1,-1 1,-2 1,-1 2,-2 2,-3l0 0c1,-1 1,-2 2,-3 0,-1 1,-2 1,-3l1 -1c0,0 0,-1 1,-2 0,0 0,0 0,-1l1 1c0,0 0,1 0,1 0,0 0,1 0,1 0,1 1,1 1,1 0,1 0,2 0,3 1,1 1,2 1,4l1 1c0,1 0,1 0,2 1,2 1,3 1,4l1 1c0,0 0,1 0,2 1,1 2,2 2,3 1,1 2,2 4,3 1,1 3,2 4,2 1,0 3,0 4,-1 0,0 0,0 1,0 0,0 1,0 2,-1 0,0 0,0 1,0 0,-1 1,-1 1,-2l2 -2c0,0 1,-1 2,-1 0,-1 1,-2 1,-3l1 0c0,0 0,-1 0,-1l1 -1c0,0 0,-1 1,-1 0,0 0,0 0,0l0 -1c1,0 1,-1 1,-1 0,-1 1,-1 1,-2 1,-1 2,-2 2,-3 0,0 0,0 1,0 0,-1 0,-1 0,-1 0,-1 0,-1 0,-1l1 0c0,-1 1,-2 1,-3l2 -3 1 -2c1,-1 1,-1 1,-2 1,0 1,-1 1,-1 0,0 1,-1 2,-3 0,0 0,-1 0,-1 1,-1 1,-1 1,-2 1,-1 2,-2 2,-2l0 0c1,0 1,0 1,0 1,0 2,0 3,0 1,0 3,0 4,0l6 0c0,0 1,0 2,0l6 0c0,1 1,1 2,1l2 0c-1,0 -1,2 -1,3l0 3c0,1 0,2 1,4 0,1 0,2 0,3l1 1 0 0c0,0 0,1 0,1 0,0 0,1 0,1 0,1 1,1 1,2l1 1c0,1 1,2 1,3 0,1 0,1 1,2 0,0 0,1 1,1 0,0 0,1 1,1 0,1 0,1 1,2 0,1 0,1 1,2 0,0 1,0 1,1 1,0 2,1 3,2 1,1 2,2 3,3 1,0 2,0 3,1l1 0c0,1 1,1 1,1l2 1 1 0c1,0 2,0 3,0 1,0 2,0 3,1l3 0c0,-1 1,-1 2,-1l0 0c1,0 2,0 3,0l1 0c1,0 2,0 3,-1 1,0 2,0 4,-1 0,0 1,0 2,-1 0,0 1,0 1,0 0,0 1,0 1,-1 1,0 1,0 2,0 0,-1 1,-1 1,-1 0,0 1,-1 2,-1 1,-1 2,-1 3,-2 1,0 1,0 1,0l3 -2 3 -3c1,0 2,-1 2,-2 1,-1 1,-1 2,-1l1 -2c1,0 1,-1 2,-2l0 -1c1,0 1,-1 1,-2 2,-1 2,-2 2,-4 0,-2 0,-3 -1,-4 -1,-1 -2,-2 -4,-2 0,-1 -1,-1 -2,-1 0,0 -1,0 -2,0 -1,1 -3,2 -4,4 0,0 0,1 -1,1 0,1 -1,2 -1,2l-1 0c0,1 -1,2 -1,2 -1,1 -1,2 -2,2 -1,1 -2,1 -2,2l-1 0c0,1 -1,1 -2,1l-2 2 -1 1c-1,0 -2,0 -2,0 -1,1 -2,1 -2,1 -1,1 -2,1 -3,1l0 0c-1,1 -2,1 -2,1 -1,0 -1,0 -1,0 -1,0 -1,0 -2,0 0,0 -1,0 -1,1 -1,0 -1,0 -1,0 -1,0 -1,0 -2,0l-1 0c0,0 -1,0 -1,0l-1 0c-1,0 -1,-1 -2,-1 -1,0 -2,0 -2,0 0,0 -1,-1 -1,-1 0,0 -1,0 -1,0 -1,-1 -1,-1 -2,-1 0,0 0,-1 -1,-1l0 0c0,-1 0,-1 0,-1 -1,0 -1,0 -1,0 1,0 2,-1 3,-1 1,0 2,-1 4,-1 1,-1 2,-2 3,-3 1,0 2,-1 3,-2 1,-1 2,-2 3,-4 0,-1 1,-2 1,-3 1,-1 1,-2 1,-3 0,-2 1,-3 1,-4 0,-1 -1,-3 -1,-4 0,-1 -1,-2 -1,-3 -1,-1 -1,-2 -2,-3 0,-1 -1,-2 -2,-3 -1,-1 -2,-1 -4,-2 0,-1 -1,-1 -3,-2 -1,0 -2,-1 -4,-1 -1,0 -2,0 -3,0zm-145 -19c-2,0 -3,1 -5,2 -1,1 -2,2 -2,4l0 1c0,0 0,1 0,1l0 1c0,0 0,1 0,1 0,1 0,2 0,3 1,2 2,3 3,3 2,1 3,1 4,1 2,0 3,-1 4,-2 1,-1 2,-3 2,-5l0 0c0,-1 0,-1 0,-1 1,-1 1,-1 1,-2 0,-2 -1,-3 -2,-4 -2,-2 -3,-3 -5,-3zm-65 51l0 5c0,0 0,1 0,1 0,1 0,2 0,2 0,1 0,2 -1,3l0 1c0,1 0,2 0,3 0,0 -1,1 -1,2 -1,1 -1,1 -1,2 -1,0 -1,0 -1,1l-1 0c0,0 0,0 0,1 0,0 -1,0 -1,0l-1 1 -1 0c0,0 0,0 0,0 -1,0 -2,0 -2,0 0,0 0,0 0,-1 -1,0 -1,0 -1,0 0,0 0,0 0,0 0,0 0,0 0,0l0 0c-1,0 -1,0 -1,-1 0,0 0,0 0,-1 0,0 0,0 0,-1l0 -1c0,0 0,-1 0,-1 0,0 0,0 0,-1 0,0 0,0 0,-1l1 -1c0,-1 0,-2 1,-2l0 -1c0,0 1,-1 1,-1 0,-1 1,-1 1,-1 0,-1 0,-1 1,-2 0,0 1,0 1,-1 0,0 0,-1 1,-1l2 -2c0,-1 1,-1 2,-2 0,0 0,0 1,0 0,0 0,0 0,0zm-91 -13l2 0c1,0 2,0 2,0 1,0 2,0 2,1 1,0 1,0 2,1 1,0 1,1 2,1 0,0 1,1 1,1 0,0 0,0 1,0 0,1 1,1 1,2 0,0 1,1 1,1 0,0 0,0 0,0 0,0 0,0 0,1l0 0c0,1 0,2 0,2 0,1 0,2 0,3 -1,1 -1,1 -1,2 0,1 -1,1 -1,2 0,0 0,1 0,1l-1 1c0,0 0,1 -1,1l-1 2c0,0 -1,0 -1,0 0,0 0,0 -1,0l-1 1c-1,0 -1,0 -1,1 -1,0 -1,0 -1,0l-1 0c-1,0 -1,0 -2,0 0,0 0,0 0,-1 0,0 -1,0 -1,0l-2 -1c-1,0 -1,-1 -2,-1 0,0 0,0 0,0l-1 -1c0,0 -1,-1 -1,-1 0,-1 -1,-1 -1,-2 0,0 0,0 0,0 -1,-1 -1,-1 -1,-2 0,0 0,0 -1,0 0,-1 0,-1 0,-2 0,0 0,0 0,-1 0,0 0,0 0,0 -1,-1 -1,-1 -1,-2l0 -2c0,0 0,0 1,-1 0,0 0,0 0,0 0,-1 0,-2 0,-2 0,0 0,0 1,-1 0,0 0,0 0,0l1 -2c1,0 1,0 2,-1 0,0 0,0 1,0 0,0 0,0 0,0 1,-1 1,-1 2,-1 1,0 1,0 2,0zm11 58c0,0 0,1 0,1 0,1 0,2 0,3 0,0 -1,2 -1,3 0,0 0,0 0,0 0,2 -1,3 -1,4 0,1 0,2 -1,4 0,0 0,1 -1,4l-1 3c0,0 0,0 0,0l0 1c-1,1 -1,2 -1,3 -1,1 -1,1 -1,2 0,0 0,1 -1,1l0 2c-1,0 -1,1 -1,1 -1,1 -1,2 -2,3 0,0 0,1 0,1 -1,0 -1,1 -1,1 -1,1 -1,1 -1,2l-2 1c0,0 0,1 -1,1 0,1 -1,1 -2,1 0,1 -1,1 -1,1 -1,0 -2,0 -2,1l-1 0c0,0 -1,0 -1,0l-1 0c0,0 -1,0 -1,0 0,-1 -1,-1 -1,-1 0,0 0,0 0,0l-1 0c0,0 0,0 0,0 0,0 0,0 0,0 -1,0 -1,0 -1,0l0 -1c0,0 -1,-1 -1,-1 0,0 0,-1 0,-1l-1 0c0,-1 0,-1 0,-2l0 0c0,-1 0,-1 0,-1 0,-1 0,-1 0,-2 1,0 1,-1 1,-2 0,0 0,0 0,-1 1,0 1,0 1,-1 0,0 0,0 0,0 1,-1 1,-1 2,-2 0,-1 1,-2 2,-3 1,-1 2,-2 3,-3 1,-1 2,-2 2,-3 1,-1 2,-2 2,-2l1 -1c1,0 1,-1 1,-1 0,0 0,0 0,0l2 -2c1,-1 1,-1 2,-2 0,-1 1,-1 1,-2 1,-1 2,-2 3,-2l1 -1c0,-1 1,-2 2,-3l1 -1c0,0 1,-1 1,-1 1,-1 2,-2 2,-2zm-78 -96c-2,0 -3,1 -4,2 -2,1 -2,2 -3,4l0 1c0,0 0,1 0,1l0 1c0,0 0,1 0,1 0,1 0,2 0,3 1,2 2,3 4,3 1,1 2,1 4,1 1,0 2,-1 3,-2 1,-1 2,-3 2,-5l0 0c1,-1 1,-1 1,-1 0,-1 0,-1 0,-2 0,-2 -1,-3 -2,-4 -1,-2 -3,-3 -5,-3zm-61 96c0,0 0,1 0,1 0,1 -1,2 -1,3 0,0 0,2 0,3 -1,0 -1,0 -1,0 0,2 0,3 0,4 0,1 -1,2 -1,4 0,0 -1,1 -1,4l-1 3c0,0 0,0 0,0l-1 1c0,1 0,2 -1,3 0,1 0,1 0,2 -1,0 -1,1 -1,1l-1 2c0,0 0,1 -1,1 0,1 0,2 -1,3 0,0 -1,1 -1,1 0,0 0,1 -1,1 0,1 0,1 -1,2l-1 1c0,0 -1,1 -1,1 -1,1 -1,1 -2,1 -1,1 -1,1 -2,1 0,0 -1,0 -2,1l0 0c-1,0 -1,0 -2,0l0 0c-1,0 -1,0 -2,0 0,-1 0,-1 0,-1 0,0 -1,0 -1,0l0 0c0,0 0,0 -1,0 0,0 0,0 0,0 0,0 0,0 0,0l-1 -1c0,0 0,-1 0,-1 0,0 -1,-1 -1,-1l0 0c0,-1 0,-1 0,-2l0 0c-1,-1 -1,-1 -1,-1 1,-1 1,-1 1,-2 0,0 0,-1 1,-2 0,0 0,0 0,-1 0,0 0,0 1,-1 0,0 0,0 0,0 0,-1 1,-1 1,-2 1,-1 2,-2 3,-3 0,-1 1,-2 2,-3 1,-1 2,-2 3,-3 1,-1 1,-2 2,-2l1 -1c0,0 0,-1 0,-1 1,0 1,0 1,0l2 -2c0,-1 1,-1 1,-2 1,-1 1,-1 2,-2 1,-1 2,-2 2,-2l1 -1c1,-1 1,-2 2,-3l1 -1c1,0 1,-1 2,-1 1,-1 2,-2 2,-2z"/>
 </g>
</svg>
