<svg width="18" height="16" viewBox="0 0 18 16" fill="none" xmlns="http://www.w3.org/2000/svg">
<path d="M9.00011 7.52002V7.36255C9.00011 6.85255 9.31513 6.58254 9.63013 6.36504C9.93763 6.15504 10.2451 5.88505 10.2451 5.39005C10.2451 4.70005 9.69011 4.14502 9.00011 4.14502C8.31011 4.14502 7.75513 4.70005 7.75513 5.39005M8.99662 9.3125H9.00338M12.75 12.8226H9.75L6.41249 15.0425C5.91749 15.3725 5.25 15.0201 5.25 14.4201V12.8226C3 12.8226 1.5 11.3226 1.5 9.07256V4.57251C1.5 2.32251 3 0.82251 5.25 0.82251H12.75C15 0.82251 16.5 2.32251 16.5 4.57251V9.07256C16.5 11.3226 15 12.8226 12.75 12.8226Z" stroke="#1C2A3A" stroke-width="1.5" stroke-linecap="round" stroke-linejoin="round"/>
</svg>
