<svg width="13" height="11" viewBox="0 0 13 11" fill="none" xmlns="http://www.w3.org/2000/svg">
<path d="M9.24401 0C8.98985 0.0130145 8.7357 0.0390435 8.49567 0.117131C8.11444 0.247276 7.74733 0.442493 7.4367 0.728812C7.34733 0.781036 7.27183 0.851111 7.2158 0.933855C7.15977 1.0166 7.12463 1.1099 7.11299 1.20684C7.10135 1.30379 7.11351 1.40191 7.14856 1.49395C7.18361 1.58598 7.24066 1.66957 7.31549 1.73855C7.39031 1.80752 7.48101 1.8601 7.58085 1.89241C7.6807 1.92471 7.78715 1.93592 7.89233 1.92519C7.99751 1.91446 8.09873 1.88208 8.1885 1.83043C8.27827 1.77878 8.3543 1.7092 8.41095 1.62681C8.56627 1.48365 8.74982 1.40557 8.9475 1.34049C9.44168 1.18432 10.0488 1.24939 10.4442 1.62681C10.9948 2.13438 10.9948 2.98032 10.4442 3.5009L8.32624 5.45308C7.70498 6.02572 7.19667 6.07778 6.82956 6.06476C6.46246 6.05175 6.25066 5.89557 6.25066 5.89557C6.16908 5.85284 6.07916 5.82535 5.98605 5.81465C5.89293 5.80395 5.79844 5.81027 5.70798 5.83323C5.61751 5.85619 5.53283 5.89535 5.45879 5.94848C5.38474 6.0016 5.32277 6.06765 5.27641 6.14285C5.23006 6.21805 5.20023 6.30093 5.18862 6.38675C5.17702 6.47258 5.18386 6.55967 5.20878 6.64306C5.23369 6.72645 5.27617 6.8045 5.33381 6.87275C5.39144 6.941 5.4631 6.99812 5.54468 7.04085C5.54468 7.04085 6.02475 7.32717 6.73073 7.36621C7.4367 7.40526 8.42507 7.15798 9.28637 6.35108L11.4043 4.3989C12.5056 3.38377 12.5056 1.74394 11.4043 0.741827C11.009 0.377421 10.543 0.156174 10.0347 0.052058C9.78055 0 9.49816 0 9.24401 0.0130145V0ZM6.4201 3.00635C5.71412 2.98032 4.73987 3.20157 3.90682 3.98244L1.78888 5.93462C0.687559 6.94975 0.687559 8.58958 1.78888 9.59169C2.57958 10.3205 3.70914 10.5287 4.69751 10.2034C5.07874 10.0732 5.44585 9.87801 5.75648 9.59169C5.84585 9.53947 5.92135 9.46939 5.97738 9.38665C6.03342 9.30391 6.06855 9.21061 6.08019 9.11366C6.09183 9.01671 6.07967 8.91859 6.04462 8.82656C6.00957 8.73452 5.95252 8.65093 5.8777 8.58196C5.80287 8.51299 5.71218 8.46041 5.61233 8.4281C5.51248 8.39579 5.40603 8.38459 5.30085 8.39531C5.19567 8.40604 5.09445 8.43843 5.00468 8.49008C4.91491 8.54172 4.83889 8.61131 4.78223 8.69369C4.62691 8.83685 4.44336 8.91494 4.24569 8.98001C3.7515 9.13618 3.14436 9.07111 2.74901 8.69369C2.19835 8.18613 2.19835 7.34018 2.74901 6.8196L4.86695 4.86743C5.43173 4.34685 5.92591 4.28177 6.32126 4.29479C6.71661 4.3078 6.98488 4.41192 6.98488 4.41192C7.0676 4.46911 7.16295 4.50885 7.26417 4.52833C7.3654 4.54781 7.47003 4.54655 7.57067 4.52466C7.67131 4.50276 7.7655 4.46075 7.84658 4.4016C7.92767 4.34245 7.99367 4.2676 8.03991 4.18235C8.08616 4.0971 8.11152 4.00353 8.1142 3.90825C8.11689 3.81296 8.09684 3.7183 8.05546 3.63095C8.01408 3.5436 7.95239 3.4657 7.87475 3.40274C7.79711 3.33979 7.70541 3.29333 7.60614 3.26664C7.60614 3.26664 7.12607 3.00635 6.4201 2.98032V3.00635Z" fill="black"/>
</svg>
