<svg width="17" height="20" viewBox="0 0 17 20" fill="none" xmlns="http://www.w3.org/2000/svg">
<path d="M8.5 19.7142C9.84026 19.7142 10.9274 18.6271 10.9274 17.2857H6.07257C6.07257 18.6271 7.15974 19.7142 8.5 19.7142ZM16.6733 14.0333C15.9401 13.2455 14.5684 12.0604 14.5684 8.17854C14.5684 5.23011 12.5011 2.86985 9.71352 2.29079V1.49999C9.71352 0.829476 9.17013 0.285706 8.5 0.285706C7.82987 0.285706 7.28648 0.829476 7.28648 1.49999V2.29079C4.49894 2.86985 2.43163 5.23011 2.43163 8.17854C2.43163 12.0604 1.05987 13.2455 0.326744 14.0333C0.0990661 14.278 -0.00187108 14.5706 2.62356e-05 14.8571C0.00420033 15.4794 0.492569 16.0714 1.2181 16.0714H15.7819C16.5074 16.0714 16.9962 15.4794 17 14.8571C17.0019 14.5706 16.9009 14.2776 16.6733 14.0333Z" fill="black"/>
</svg>
