<svg width="11" height="13" viewBox="0 0 11 13" fill="none" xmlns="http://www.w3.org/2000/svg">
<path d="M7.73479 3.6541C6.94093 3.11916 6.32429 2.70364 5.82348 2.43407C5.3208 2.1635 4.88446 2.0107 4.46017 2.06275C3.78678 2.14535 3.17375 2.5577 2.77425 3.19946C2.52192 3.60483 2.41685 4.1251 2.36622 4.76922C2.31579 5.41075 2.31579 6.24224 2.3158 7.3116V7.35616C2.31579 8.42551 2.31579 9.25701 2.36622 9.89854C2.41685 10.5427 2.52192 11.0629 2.77425 11.4683C3.17375 12.1101 3.78678 12.5224 4.46017 12.605C4.88446 12.6571 5.3208 12.5043 5.82348 12.2337C6.32428 11.9641 6.94092 11.5486 7.73477 11.0137L7.767 10.992C8.56081 10.4571 9.17747 10.0415 9.62794 9.67006C10.0797 9.29754 10.4127 8.93195 10.5873 8.47422C10.8642 7.74846 10.8642 6.9193 10.5873 6.19354C10.4127 5.73581 10.0797 5.37023 9.62794 4.9977C9.17747 4.62624 8.5608 4.21071 7.767 3.6758L7.73479 3.6541Z" fill="#555555"/>
</svg>
