<svg width="17" height="17" viewBox="0 0 17 17" fill="none" xmlns="http://www.w3.org/2000/svg">
<path d="M7.37077 0.0210593C3.30632 0.0210593 0 3.32738 0 7.39183C0 11.4563 3.30632 14.7626 7.37077 14.7626C8.61327 14.7626 9.83471 14.4678 10.8666 13.8992C10.9493 13.9986 11.0409 14.0903 11.1404 14.1729L13.2463 16.2789C13.4408 16.4977 13.6779 16.6744 13.9431 16.7983C14.2084 16.9221 14.4961 16.9905 14.7887 16.9991C15.0813 17.0077 15.3726 16.9564 15.6447 16.8484C15.9167 16.7403 16.1639 16.5778 16.3708 16.3708C16.5778 16.1639 16.7403 15.9167 16.8484 15.6447C16.9564 15.3726 17.0077 15.0813 16.9991 14.7887C16.9905 14.4961 16.9221 14.2084 16.7983 13.9431C16.6744 13.6779 16.4977 13.4408 16.2789 13.2463L14.1729 11.1404C14.0704 11.0378 13.9574 10.946 13.836 10.8666C14.4046 9.83471 14.7626 8.63433 14.7626 7.37077C14.7626 3.30632 11.4563 0 7.39183 0L7.37077 0.0210593ZM7.37077 2.12699C10.298 2.12699 12.6356 4.46458 12.6356 7.39183C12.6356 8.78174 12.1302 10.0664 11.2457 11.014C11.2246 11.0351 11.2036 11.0562 11.1825 11.0772C11.083 11.1599 10.9914 11.2515 10.9087 11.351C9.98213 12.1934 8.71857 12.6777 7.34971 12.6777C4.42246 12.6777 2.08487 10.3401 2.08487 7.41289C2.08487 4.48564 4.42246 2.14805 7.34971 2.14805L7.37077 2.12699Z" fill="black"/>
</svg>
