<svg width="20" height="18" viewBox="0 0 20 18" fill="none" xmlns="http://www.w3.org/2000/svg">
<path d="M10.0001 11.5C11.3808 11.5 12.5001 10.3807 12.5001 9C12.5001 7.61929 11.3808 6.5 10.0001 6.5C8.61937 6.5 7.50008 7.61929 7.50008 9C7.50008 10.3807 8.61937 11.5 10.0001 11.5Z" stroke="#1C2A3A" stroke-width="1.5" stroke-miterlimit="10" stroke-linecap="round" stroke-linejoin="round"/>
<path d="M1.66675 9.73333V8.26666C1.66675 7.4 2.37508 6.68333 3.25008 6.68333C4.75841 6.68333 5.37508 5.61666 4.61675 4.30833C4.18341 3.55833 4.44175 2.58333 5.20008 2.15L6.64175 1.325C7.30008 0.933331 8.15008 1.16666 8.54175 1.825L8.63341 1.98333C9.38341 3.29166 10.6167 3.29166 11.3751 1.98333L11.4667 1.825C11.8584 1.16666 12.7084 0.933331 13.3667 1.325L14.8084 2.15C15.5667 2.58333 15.8251 3.55833 15.3917 4.30833C14.6334 5.61666 15.2501 6.68333 16.7584 6.68333C17.6251 6.68333 18.3417 7.39166 18.3417 8.26666V9.73333C18.3417 10.6 17.6334 11.3167 16.7584 11.3167C15.2501 11.3167 14.6334 12.3833 15.3917 13.6917C15.8251 14.45 15.5667 15.4167 14.8084 15.85L13.3667 16.675C12.7084 17.0667 11.8584 16.8333 11.4667 16.175L11.3751 16.0167C10.6251 14.7083 9.39175 14.7083 8.63341 16.0167L8.54175 16.175C8.15008 16.8333 7.30008 17.0667 6.64175 16.675L5.20008 15.85C4.44175 15.4167 4.18341 14.4417 4.61675 13.6917C5.37508 12.3833 4.75841 11.3167 3.25008 11.3167C2.37508 11.3167 1.66675 10.6 1.66675 9.73333Z" stroke="#1C2A3A" stroke-width="1.5" stroke-miterlimit="10" stroke-linecap="round" stroke-linejoin="round"/>
</svg>
