<svg width="112" height="107" viewBox="0 0 112 107" fill="none" xmlns="http://www.w3.org/2000/svg">
<path d="M53.1468 2.78116C54.0449 0.0172303 57.9551 0.0172222 58.8532 2.78115L69.9199 36.8409C70.3215 38.077 71.4734 38.9139 72.773 38.9139H108.586C111.492 38.9139 112.7 42.6327 110.349 44.3409L81.376 65.3911C80.3245 66.155 79.8846 67.5091 80.2862 68.7452L91.3529 102.805C92.2509 105.569 89.0875 107.867 86.7363 106.159L57.7634 85.1089C56.7119 84.345 55.2881 84.345 54.2366 85.1089L25.2637 106.159C22.9125 107.867 19.7491 105.569 20.6471 102.805L31.7138 68.7452C32.1154 67.5091 31.6755 66.155 30.624 65.3911L1.65103 44.341C-0.70011 42.6327 0.508207 38.9139 3.41438 38.9139H39.227C40.5266 38.9139 41.6785 38.077 42.0801 36.8409L53.1468 2.78116Z" fill="#FEB052"/>
</svg>
