<svg width="16" height="18" viewBox="0 0 16 18" fill="none" xmlns="http://www.w3.org/2000/svg">
<path d="M8 9.375V11.625M8 9.375C8.82843 9.375 9.5 8.70343 9.5 7.875C9.5 7.04657 8.82843 6.375 8 6.375C7.17157 6.375 6.5 7.04657 6.5 7.875C6.5 8.70343 7.17157 9.375 8 9.375ZM14.6824 8.33998C14.6824 12.0075 12.0199 15.4425 8.38239 16.4475C8.13489 16.515 7.86488 16.515 7.61738 16.4475C3.97988 15.4425 1.31738 12.0075 1.31738 8.33998V5.04747C1.31738 4.43247 1.78239 3.73497 2.35989 3.50247L6.53738 1.79249C7.47488 1.40999 8.53238 1.40999 9.46988 1.79249L13.6474 3.50247C14.2174 3.73497 14.6899 4.43247 14.6899 5.04747L14.6824 8.33998Z" stroke="#1C2A3A" stroke-width="1.5" stroke-miterlimit="10" stroke-linecap="round" stroke-linejoin="round"/>
</svg>
