<svg width="21" height="21" viewBox="0 0 21 21" fill="none" xmlns="http://www.w3.org/2000/svg">
<path fill-rule="evenodd" clip-rule="evenodd" d="M8.41686 1.93429C8.16989 2.14476 8.0464 2.25001 7.91451 2.3384C7.61219 2.54103 7.27267 2.68166 6.91562 2.75215C6.75985 2.78291 6.59812 2.79581 6.27465 2.82162C5.46194 2.88649 5.05557 2.91891 4.71655 3.03866C3.93241 3.31562 3.31562 3.93241 3.03866 4.71655C2.91891 5.05557 2.88649 5.46194 2.82162 6.27465C2.79581 6.59812 2.78291 6.75985 2.75215 6.91562C2.68166 7.27267 2.54103 7.61219 2.3384 7.91451C2.25001 8.0464 2.14477 8.16988 1.93429 8.41686C1.40548 9.03742 1.14106 9.34764 0.986016 9.67207C0.627383 10.4224 0.627383 11.2946 0.986016 12.045C1.14107 12.3694 1.40548 12.6796 1.93429 13.3002C2.14474 13.5471 2.25001 13.6707 2.3384 13.8025C2.54103 14.1048 2.68166 14.4443 2.75215 14.8014C2.78291 14.9572 2.79581 15.119 2.82162 15.4424C2.88649 16.2551 2.91891 16.6615 3.03866 17.0005C3.31562 17.7846 3.93241 18.4014 4.71655 18.6784C5.05557 18.7981 5.46194 18.8305 6.27465 18.8954C6.59812 18.9212 6.75985 18.9342 6.91562 18.9649C7.27267 19.0354 7.61219 19.1761 7.91451 19.3787C8.0464 19.467 8.16988 19.5723 8.41686 19.7827C9.03742 20.3116 9.34764 20.576 9.67207 20.731C10.4224 21.0896 11.2946 21.0896 12.045 20.731C12.3694 20.576 12.6796 20.3116 13.3002 19.7827C13.5471 19.5723 13.6707 19.467 13.8025 19.3787C14.1048 19.1761 14.4443 19.0354 14.8014 18.9649C14.9572 18.9342 15.119 18.9212 15.4424 18.8954C16.2551 18.8305 16.6615 18.7981 17.0005 18.6784C17.7846 18.4014 18.4014 17.7846 18.6784 17.0005C18.7981 16.6615 18.8305 16.2551 18.8954 15.4424C18.9212 15.119 18.9342 14.9572 18.9649 14.8014C19.0354 14.4443 19.1761 14.1048 19.3787 13.8025C19.467 13.6707 19.5723 13.5471 19.7827 13.3002C20.3116 12.6796 20.576 12.3694 20.731 12.045C21.0896 11.2946 21.0896 10.4224 20.731 9.67207C20.576 9.34764 20.3116 9.03742 19.7827 8.41686C19.5723 8.16988 19.467 8.0464 19.3787 7.91451C19.1761 7.61219 19.0354 7.27267 18.9649 6.91562C18.9342 6.75985 18.9212 6.59812 18.8954 6.27465C18.8305 5.46194 18.7981 5.05557 18.6784 4.71655C18.4014 3.93241 17.7846 3.31562 17.0005 3.03866C16.6615 2.91891 16.2551 2.88649 15.4424 2.82162C15.119 2.79581 14.9572 2.78291 14.8014 2.75215C14.4443 2.68166 14.1048 2.54103 13.8025 2.3384C13.6707 2.25001 13.5471 2.14477 13.3002 1.93429C12.6796 1.40548 12.3694 1.14107 12.045 0.986016C11.2946 0.627383 10.4224 0.627383 9.67207 0.986016C9.34764 1.14106 9.03742 1.40548 8.41686 1.93429ZM15.2939 8.69143C15.6162 8.36909 15.6162 7.8465 15.2939 7.52417C14.9716 7.20184 14.4489 7.20184 14.1266 7.52417L9.20779 12.443L7.59039 10.8257C7.26806 10.5034 6.74546 10.5034 6.42314 10.8257C6.10081 11.148 6.10081 11.6705 6.42314 11.9929L8.62413 14.194C8.94645 14.5162 9.46904 14.5162 9.79144 14.194L15.2939 8.69143Z" fill="#FFB800"/>
</svg>
